<svg xmlns="http://www.w3.org/2000/svg" version="1.1" width="400" height="120" style=""><rect id="backgroundrect" width="100%" height="100%" x="0" y="0" fill="none" stroke="none"/><g class="currentLayer" style=""><title>Layer 1</title><path fill="#49afdb" d="M7.602355953597005,13.340888721471917 q0,-0.6307548334628672 0.5499369230141876,-0.9461322501942756 t1.1955150500308411,-0.4730661250971388 t1.171604749030224,-0.15768870836571372 l0.5260266220135839,0 q1.6737210700432048,0 2.4149404010622986,0.8410064446171356 t1.7932725750462613,2.155079014331409 q7.173090300185042,11.406149905119896 13.150665550339244,23.46933609509693 t11.524765082297302,24.415468345291206 q0.47820602001233725,-14.40223536406844 0.9803223410252774,-28.988440887896882 t1.2672459530326912,-28.93587798510831 q0,-0.6307548334628672 0.5499369230141876,-1.051258055771419 t1.2433356520320742,-0.6307548334628672 t1.4107077590363921,-0.26281451394286565 t1.0998738460283735,-0.05256290278857207 q0.5738472240148113,0 1.2672459530326912,0.05256290278857207 t1.3867974580357756,0.3153774167314293 t1.147694448029607,0.6307548334628672 t0.45429571901171595,0.9986951529828466 q0.1912824080049373,2.2602048199085516 0.21519270900555187,4.546691091211388 t0.02391030100061736,4.546691091211388 q0,16.925254697919847 -0.6694884280172708,33.16719165958827 t-0.6694884280172708,32.799251340068274 l0,3.7845290007771086 q0,0.21025161115428384 -0.1912824080049373,0.6307548334628672 q0.09564120400246875,0.4205032223085678 0.2869236120074072,0.9198507987999918 t0.1912824080049373,0.7095991876457106 q0,0.8410064446171356 -0.7890399330203549,1.261509666925703 t-1.721541672044414,0.6570362848571373 t-1.6498107690425599,0.23653306254856934 t-0.5260266220135839,0 q-2.438850702062915,0 -4.112571772106091,-1.4717612780799871 t-1.6737210700432048,-3.521714486834254 q-3.5387245480912872,-8.725441862902779 -7.053538795181958,-17.31947646883413 t-7.34046240718936,-17.109224857679845 q-2.438850702062915,-5.3614160844342384 -4.901611705126445,-10.74911362026276 t-5.284176521136314,-10.433736203531334 q0.09564120400246875,0.10512580557714307 0.09564120400246875,0.3153774167314293 q0.47820602001233725,5.2562902788570955 1.0281429430265228,10.486299106319905 t0.8368605350215896,10.486299106319905 q0.1912824080049373,4.520409639817102 0.4303854180111048,9.145945085211347 t0.765129632019758,9.145945085211347 q0,1.734575792022842 -0.9803223410252774,2.20764191711998 t-2.271478595058597,0.4730661250971388 q-1.0998738460283735,0 -2.0801961870536627,-0.3153774167314293 t-1.171604749030224,-1.5768870836571294 q0,-4.8357870565485275 -0.3347442140086358,-10.27604749516562 t-0.6216678260160396,-10.959365231417044 q-0.47820602001233725,-7.306243487611362 -1.2672459530326912,-14.849020037771295 t-0.7890399330203549,-14.743894232194153 q0,-0.3153774167314293 0.04782060200123369,-0.6570362848571373 t0.04782060200123369,-0.7621620904342796 q-0.2869236120074072,-0.5256290278857096 -0.645578127016654,-1.1038209585599903 t-0.3586545150092591,-1.051258055771419 zM60.71526397830715,60.70006413397434 q0,-2.8909596533714037 0.5021163210129316,-6.176141077657088 t1.721541672044414,-6.018452369291374 t3.37135244108697,-4.520409639817102 t5.499369230141865,-1.7871386948114187 q2.24756829405798,0 4.3516747821122586,0.8147249932228506 t3.96910996610239,2.233923368514266 q0.5738472240148113,-1.051258055771419 1.8171828760468776,-1.2877911183199888 t2.199747692056747,-0.23653306254856934 q0.3825648160098801,0 1.0759635450277565,0.05256290278857207 t1.3628871570351584,0.3153774167314293 t1.171604749030224,0.6307548334628672 t0.5977575250154206,1.051258055771419 q0.3825648160098801,3.679403195199967 0.5260266220135839,7.332524939005648 t0.4303854180111048,7.279962036217077 q0.47820602001233725,6.780614459725655 1.4824386620382426,13.403540211085593 t1.0042326420259058,13.403540211085593 q0,3.206337070102828 -0.26301331100678627,6.938303168091366 t-1.3867974580357756,6.9120217166970805 t-3.275711237084503,5.282571730251381 t-5.977575250154202,2.1025161115428386 q-3.44308334408882,0 -5.284176521136314,-1.3403540211085598 t-3.323531839085737,-4.494128188422817 q0.09564120400246875,-1.051258055771419 1.2194253510314574,-1.3929169238971308 t1.9367343810499618,-0.3416588681257204 q0.765129632019758,0 1.5541695650400924,0.15768870836571372 t1.2672459530326912,0.5256290278857096 l1.1955150500308411,0.8410064446171356 q1.7693622740456436,-3.9947806119313922 2.1519270900555125,-8.725441862902779 t0.3825648160098801,-9.145945085211347 q0,-3.679403195199967 -0.3347442140086358,-7.279962036217077 t-0.6694884280172708,-7.2273991334285075 q-3.3474421400863537,6.675488654148511 -10.18578822626276,6.675488654148511 q-3.1561597320814183,0 -5.140714715132614,-1.4717612780799871 t-3.0605185280789517,-3.731966097988537 t-1.4824386620382426,-5.0986015704913825 t-0.4064751170104896,-5.676793501165663 zM66.59719802445886,61.17313025907147 q0,1.3140725697142743 0.09564120400246875,3.3903072298628274 t0.5021163210129316,4.073624966114249 t1.171604749030224,3.4428701326513984 t2.1519270900555125,1.4454798266857016 q2.630133110067849,0 4.1603923741073245,-2.2602048199085516 t2.4149404010622986,-5.387697535828523 t1.4107077590363921,-6.465237042994229 t1.3389768560345416,-5.492823341405664 q-0.09564120400246875,-0.7358806390400071 -0.09564120400246875,-1.4454798266857016 l0,-1.4454798266857016 q-1.0998738460283735,-2.2602048199085516 -3.2039803340826523,-3.915936257748537 t-4.3516747821122586,-2.233923368514266 q-0.2869236120074072,-0.05256290278857207 -0.5260266220135839,-0.05256290278857207 q-1.3389768560345416,0 -2.199747692056747,1.734575792022842 q-1.0998738460283735,2.1025161115428386 -1.721541672044414,5.019757216308526 t-0.8846811370228309,5.755637855348519 t-0.26301331100678627,3.8370919035656796 zM101.58609789070148,61.278256064648616 q0,-4.8357870565485275 1.0281429430265228,-9.487603953337057 t1.7454519730450269,-9.277352342182773 q0.1912824080049373,-1.208946764137132 1.5063489630388591,-1.4980427294742726 t2.2236579930573637,-0.289095965337147 q1.5780798660407096,0 2.534491906065382,0.5256290278857096 q0.3825648160098801,0.21025161115428384 0.7173090300185158,0.4730661250971388 t0.3347442140086358,0.6833177362514333 q0,4.520409639817102 -0.9803223410252774,8.83056766847992 t-0.9803223410252774,9.145945085211347 q0,1.6294499864457008 0.21519270900555187,3.0749298131314013 t0.4064751170104896,2.8646782019771173 l0.2869236120074072,1.5243241808685584 q0,0.4205032223085678 0.04782060200123369,0.7358806390400071 t0.14346180600370098,0.7358806390400071 q0,0.9461322501942756 -1.2194253510314574,1.2877911183199888 t-2.1280167890548967,0.3416588681257204 q-1.3867974580357756,0 -2.558402207065999,-0.6044733820685686 t-1.8410931770474936,-2.076234660148553 l-0.6694884280172708,-1.5243241808685584 q-0.5738472240148113,-1.208946764137132 -0.5738472240148113,-2.706989493611405 t-0.2391030100061682,-2.7595523963999806 zM104.64661641878044,29.635388585928894 l0,-0.9986951529828466 q0,-2.4704564310628347 1.1237841470289902,-4.41528383423996 t3.37135244108697,-1.9448274031771255 q0.2869236120074072,0 0.5499369230141876,0.05256290278857207 t0.5499369230141876,0.05256290278857207 q0.5738472240148113,0.10512580557714307 1.5063489630388591,0.49934757649142597 t0.9325017390240584,1.2352282155314176 l0,0.10512580557714307 q-0.1912824080049373,0.4205032223085678 -0.2391030100061682,0.8672878960114206 t-0.2391030100061682,0.7621620904342796 l0.09564120400246875,-0.10512580557714307 q-0.5738472240148113,1.6294499864457008 -0.9325017390240584,2.628145139428548 t-0.7890399330203549,1.603168535051414 t-1.0759635450277565,0.8672878960114206 t-1.8410931770474936,0.26281451394286565 q-0.1912824080049373,0 -0.6694884280172708,-0.05256290278857207 t-1.0281429430265228,-0.21025161115428384 t-0.9325017390240584,-0.4205032223085678 t-0.3825648160098801,-0.7884435418285675 zM122.46792016658014,47.82215295077445 q0,-2.155079014331409 0.6933987290178989,-3.626840292411396 t2.940967023075868,-1.4717612780799871 q0.8607708360222174,0 2.1519270900555125,0.289095965337147 t1.4824386620382426,1.4454798266857016 q0.47820602001233725,3.101211264525687 0.5260266220135839,6.728051556937082 t0.3347442140086358,6.833177362514224 q1.0998738460283735,-2.3653306254856927 2.821415518072784,-5.0986015704913825 t3.921289364101156,-5.0460386677028115 t4.782060200123361,-3.8370919035656796 t5.260266220135698,-1.5243241808685584 q0.1912824080049373,0 0.7173090300185158,0.15768870836571372 t0.9803223410252774,0.44678467370286545 t0.5499369230141876,0.6570362848571373 t-0.5260266220135839,0.6833177362514333 q-0.1912824080049373,0.6307548334628672 -0.8129502340209696,0.7621620904342796 t-1.0998738460283735,0.13140725697143077 q-0.2869236120074072,0 -0.9085914380234463,-0.26281451394286565 q-3.5387245480912872,2.0499532087542667 -6.025395852155436,5.5716676955885225 t-4.0647511701048575,7.805591064102787 t-2.2953888960592144,9.040819279634205 t-0.7173090300185158,9.277352342182773 q0,2.2602048199085516 -0.9325017390240584,2.73327094500569 t-2.988787625077101,0.4730661250971388 q-1.0998738460283735,0 -2.319299197059831,-0.26281451394286565 t-1.6976313710438122,-1.6820128892342707 q-0.8607708360222174,-2.9960854589485444 -1.4107077590363921,-6.885740265302795 t-0.8368605350215896,-8.01584267525707 t-0.4064751170104896,-8.120968480834213 t-0.11955150500308571,-7.20111768203422 zM156.45258739079682,64.69484474590573 q0,-3.679403195199967 0.7412193310191196,-8.672878960114208 t2.5105816050647656,-9.461322501942771 t4.6625086951202785,-7.595339452948503 t7.2926418051881265,-3.127492715919972 q4.112571772106091,0 6.168857658159137,2.6018636880342636 t2.056285886053046,7.0171475222742234 q0,2.8909596533714037 -0.9803223410252774,6.3338297860227994 t-2.797505217072167,6.517799945782798 t-4.303854180111025,5.124883021885668 t-5.547189832143099,2.0499532087542667 l-1.2433356520320742,-0.10512580557714307 q0,1.4191983752914161 0.3825648160098801,3.810810452171394 t1.1237841470289902,4.7569427023656745 t1.912824080049345,4.152469320297105 t2.8453258190734,1.7871386948114187 q2.438850702062915,0 4.686418996120895,-2.155079014331409 t4.2560335781097915,-4.7832241537599565 t3.730006956096222,-4.7832241537599565 t3.1561597320814183,-2.155079014331409 q0.765129632019758,0 1.5780798660407096,0.26281451394286565 t0.9085914380234463,1.4717612780799871 q0,0.7358806390400071 -0.3586545150092591,1.208946764137132 t-0.645578127016654,1.051258055771419 q-1.4824386620382426,2.785833847794261 -3.2278906350832695,5.3088531816456666 t-3.9451996651017733,4.572972542605673 t-4.805970501123978,3.2326185214971144 t-5.762382541148651,1.1826653127428466 q-4.112571772106091,0 -6.838346086176408,-1.603168535051414 t-4.399495384113493,-4.310158028662818 t-2.4149404010622986,-6.254985431839944 t-0.7412193310191196,-7.43765074458279 zM165.01247514901766,60.70006413397434 l1.3389768560345416,1.3140725697142743 q0.9564120400246592,0.9461322501942756 1.912824080049345,0.4205032223085678 t1.721541672044414,-1.9185459517828403 t1.4107077590363921,-3.4428701326513984 t1.147694448029607,-4.205032223085676 t0.7412193310191196,-4.205032223085676 t0.2391030100061682,-3.416588681257113 l0,-1.7871386948114187 t-0.14346180600370098,-1.8922645003885545 t-0.5021163210129316,-1.4980427294742726 t-1.1237841470289902,-0.7621620904342796 q-0.2391030100061682,-0.05256290278857207 -0.4303854180111048,-0.05256290278857207 q-1.6259004680419429,0 -2.7735949160715494,2.2602048199085516 q-1.2433356520320742,2.5230193338514058 -2.0084652840518116,6.123578174868517 t-1.0998738460283735,7.3850878417942205 t-0.4303854180111048,5.676793501165663 zM196.5104710691702,73.31516080323138 q0.2869236120074072,-8.515190251748495 0.5021163210129316,-17.450883725805557 t0.4064751170104896,-17.634853885565555 t0.2869236120074072,-16.89897324652556 t0.09564120400246875,-15.295804711474148 q0.09564120400246875,-1.4191983752914161 2.24756829405798,-2.2602048199085516 t5.140714715132614,-1.2352282155314176 t6.3123194641628375,-0.49934757649142597 t5.905844347152351,-0.10512580557714307 q0.5738472240148113,0 2.3910301000616814,-0.05256290278857207 l0.9085914380234463,0 q1.3867974580357756,0 2.9170567220752504,0.10512580557714307 q2.0084652840518116,0.15768870836571372 3.5148142470906705,0.6833177362514333 t1.5063489630388591,1.5243241808685584 q0,0.7358806390400071 -0.5260266220135839,1.1826653127428466 t-1.2194253510314574,0.6570362848571373 t-1.4346180600370084,0.26281451394286565 t-1.0281429430265228,0.05256290278857207 q-4.49513658811596,0 -8.894631972229453,-0.15768870836571372 q-1.1955150500308411,-0.05256290278857207 -2.438850702062915,-0.05256290278857207 q-3.2518009360838858,0 -6.5992430761702385,0.3153774167314293 q0.1912824080049373,0.6307548334628672 0.3108339130080208,3.810810452171394 t0.11955150500308571,7.174836230639935 t-0.04782060200123369,7.805591064102787 t0,5.860763660925661 l0,13.666354725028448 q1.4824386620382426,-0.10512580557714307 2.9170567220752504,-0.10512580557714307 l2.8692361200740164,0 l1.912824080049345,-0.10512580557714307 q0.9564120400246592,-0.05256290278857207 2.0084652840518116,-0.05256290278857207 q1.0998738460283735,0 2.24756829405798,0.05256290278857207 q2.2953888960592144,0.10512580557714307 4.184302675107941,0.6044733820685686 t1.8889137790487283,1.760857243417127 q0,0.9461322501942756 -0.7173090300185158,1.3929169238971308 t-1.6019901670413261,0.6570362848571373 t-1.6737210700432048,0.21025161115428384 l-0.8846811370228309,0 q-2.725774314070316,0 -5.666741337146183,-0.21025161115428384 t-5.475458929141249,-0.21025161115428384 q-0.47820602001233725,0.21025161115428384 -1.0281429430265228,0.15768870836571372 t-0.9803223410252774,-0.05256290278857207 q0,7.884435418285643 -0.14346180600370098,15.690026482388431 t-0.3347442140086358,15.532337774022716 q0,1.5243241808685584 -1.7454519730450269,1.9973903059656961 t-3.323531839085737,0.4730661250971388 q-1.7693622740456436,0 -2.797505217072167,-0.4730661250971388 t-1.4585283610376254,-1.5506056322628456 t-0.5260266220135839,-2.8646782019771173 q-0.04782060200123369,-0.9986951529828466 -0.09564120400246875,-2.20764191711998 q0,-0.9986951529828466 0.04782060200123369,-2.155079014331409 zM235.51630150351642,62.53976573157432 q0,-3.574277389622825 0.8846811370228309,-6.885740265302795 t2.654043411068467,-5.913326563714232 t4.423405685114109,-4.152469320297105 t6.144947357158521,-1.5506056322628456 q2.1519270900555125,0 4.7581498991227456,0.7095991876457106 t4.901611705126445,2.1025161115428386 t3.825648160098689,3.5479959382285404 t1.530259264039476,4.9409128621256695 q0,1.3140725697142743 -0.4064751170104896,1.9973903059656961 t-1.6498107690425599,0.6833177362514333 l-0.5260266220135839,-0.10512580557714307 q1.3867974580357756,4.099906417508534 2.3910301000616814,8.410064446171353 t1.9606446820505994,8.620316057325637 q0.3825648160098801,0.8410064446171356 0.5738472240148113,1.4980427294742726 t0.1912824080049373,1.2877911183199888 q0,0.8410064446171356 -0.4303854180111048,1.3929169238971308 t-1.1237841470289902,0.8147249932228506 t-1.4346180600370084,0.36794031952000317 t-1.3150665550339249,0.10512580557714307 q-2.056285886053046,0 -3.084428829079569,-0.7884435418285675 t-1.4824386620382426,-2.155079014331409 t-0.5499369230141876,-3.0749298131314013 t-0.3825648160098801,-3.4428701326513984 q-0.5738472240148113,2.0499532087542667 -1.5063489630388591,3.9947806119313922 t-2.199747692056747,3.495433035439969 t-2.988787625077101,2.4704564310628347 t-3.8734687620999226,0.9198507987999918 q-3.1561597320814183,0 -5.308086822136931,-1.9973903059656961 t-3.466993645089437,-4.914631410731384 t-1.912824080049345,-6.228703980445658 t-0.5977575250154206,-6.149859626262802 zM242.30682698769158,61.80388509253433 q0,1.9448274031771255 0.2391030100061682,4.099906417508534 t0.7890399330203549,4.257595125874247 t1.4107077590363921,3.968499160537107 t2.1519270900555125,3.2851814242856845 q2.343209498060448,-2.785833847794261 3.466993645089437,-6.780614459725655 t2.0084652840518116,-7.700465258525645 t2.0084652840518116,-6.360111237417085 t3.466993645089437,-2.654426590822834 q1.4824386620382426,0 2.486671304064148,0.5781919306742944 q-0.47820602001233725,-1.3140725697142743 -1.5780798660407096,-2.549300785245692 t-2.4627610030635316,-2.2602048199085516 t-2.821415518072784,-1.6820128892342707 t-2.749684615070933,-0.6570362848571373 q-0.3825648160098801,0 -0.8846811370228309,0.13140725697143077 t-0.7890399330203549,0.026281451394286167 q-1.9606446820505994,0.6307548334628672 -3.2278906350832695,2.181360465725695 t-2.056285886053046,3.653121743805682 t-1.1237841470289902,4.310158028662818 t-0.3347442140086358,4.152469320297105 zM276.9609826399256,47.82215295077445 q0,-2.155079014331409 0.6933987290178989,-3.626840292411396 t2.940967023075868,-1.4717612780799871 q0.8607708360222174,0 2.1519270900555125,0.289095965337147 t1.4824386620382426,1.4454798266857016 q0.47820602001233725,3.101211264525687 0.5260266220135839,6.728051556937082 t0.3347442140086358,6.833177362514224 q1.0998738460283735,-2.3653306254856927 2.821415518072784,-5.0986015704913825 t3.921289364101156,-5.0460386677028115 t4.782060200123361,-3.8370919035656796 t5.260266220135698,-1.5243241808685584 q0.1912824080049373,0 0.7173090300185158,0.15768870836571372 t0.9803223410252774,0.44678467370286545 t0.5499369230141876,0.6570362848571373 t-0.5260266220135839,0.6833177362514333 q-0.1912824080049373,0.6307548334628672 -0.8129502340209696,0.7621620904342796 t-1.0998738460283735,0.13140725697143077 q-0.2869236120074072,0 -0.9085914380234463,-0.26281451394286565 q-3.5387245480912872,2.0499532087542667 -6.025395852155436,5.5716676955885225 t-4.0647511701048575,7.805591064102787 t-2.2953888960592144,9.040819279634205 t-0.7173090300185158,9.277352342182773 q0,2.2602048199085516 -0.9325017390240584,2.73327094500569 t-2.988787625077101,0.4730661250971388 q-1.0998738460283735,0 -2.319299197059831,-0.26281451394286565 t-1.6976313710438122,-1.6820128892342707 q-0.8607708360222174,-2.9960854589485444 -1.4107077590363921,-6.885740265302795 t-0.8368605350215896,-8.01584267525707 t-0.4064751170104896,-8.120968480834213 t-0.11955150500308571,-7.20111768203422 zM311.0652013691453,49.372758583037296 q-0.11955150500308571,-1.760857243417127 0.1912824080049373,-3.2326185214971144 t1.2433356520320742,-2.391612076879979 t2.988787625077101,-0.9198507987999918 q0.47820602001233725,0 1.171604749030224,0.13140725697143077 t1.3628871570351584,0.3416588681257204 t1.1237841470289902,0.6307548334628672 t0.45429571901171595,1.1563838613485609 l0,5.9396080151085195 q1.8650034780481106,-2.3653306254856927 4.0647511701048575,-3.3903072298628274 t5.021163210129529,-1.0249766043771336 q2.1519270900555125,0 4.2560335781097915,1.0775395071657046 t3.96910996610239,2.8646782019771173 t3.2278906350832695,3.9422177091428217 t1.9845549830511955,4.310158028662818 q0.3825648160098801,-1.9448274031771255 0.8607708360222174,-4.7569427023656745 t1.4107077590363921,-5.387697535828523 t2.4627610030635316,-4.41528383423996 t4.0647511701048575,-1.8397015975999857 q2.725774314070316,0 4.590777792118427,2.155079014331409 t3.036608227078335,5.597949146982806 t1.7693622740456436,7.700465258525645 t0.8846811370228309,8.410064446171353 t0.2869236120074072,7.753028161314216 l0,5.650512049771377 q0,0.6307548334628672 -0.4303854180111048,1.0249766043771336 t-1.0759635450277565,0.6044733820685686 t-1.3389768560345416,0.26281451394286565 t-1.0759635450277565,0.05256290278857207 q-1.4824386620382426,0 -2.701864013069699,-0.49934757649142597 t-1.2194253510314574,-2.549300785245692 l0,-4.7306612509713855 t-0.09564120400246875,-6.123578174868517 t-0.3347442140086358,-6.570362848571369 t-0.6216678260160396,-5.965889466502804 t-0.9803223410252774,-4.310158028662818 t-1.4585283610376254,-1.6820128892342707 q-1.1955150500308411,0 -1.721541672044414,1.4717612780799871 t-0.8846811370228309,3.731966097988537 t-0.5499369230141876,4.7832241537599565 t-0.5260266220135839,4.7832241537599565 t-1.0759635450277565,3.705684646594252 t-2.032375585052429,1.4454798266857016 q-1.3867974580357756,0 -2.438850702062915,-1.4454798266857016 t-2.0801961870536627,-3.6005588410171105 t-2.056285886053046,-4.625535445394243 t-2.271478595058597,-4.625535445394243 q-1.2433356520320742,-2.20764191711998 -2.677953712069084,-3.574277389622825 q-1.2911562540333081,-1.3140725697142743 -2.9170567220752504,-1.261509666925703 l-0.2391030100061682,0 q-2.1519270900555125,0.10512580557714307 -3.37135244108697,1.7082943406285573 t-1.8650034780481106,3.915936257748537 t-0.7890399330203549,4.967194313519955 t-0.14346180600370098,4.651816896788529 q0,1.8922645003885545 0.2869236120074072,4.41528383423996 q0.1912824080049373,1.6820128892342707 0.1912824080049373,3.206337070102828 q0,0.7884435418285675 -0.04782060200123369,1.5243241808685584 q-0.14346180600370098,2.20764191711998 -1.0759635450277565,3.705684646594252 t-3.466993645089437,1.4980427294742726 q-0.9564120400246592,0 -2.3910301000616814,-0.21025161115428384 t-1.912824080049345,-1.4191983752914161 q-1.0998738460283735,-2.155079014331409 -1.6737210700432048,-5.440260438617094 t-0.8607708360222174,-6.780614459725655 t-0.3347442140086358,-6.938303168091366 t-0.04782060200123369,-5.913326563714232 q0,-1.734575792022842 -0.11955150500308571,-3.495433035439969 zM371.3751099950412,48.97853681212301 q0,-2.155079014331409 1.147694448029607,-3.705684646594252 t2.797505217072167,-2.5230193338514058 t3.610455451093138,-1.4454798266857016 t3.6343657520937547,-0.4730661250971388 q1.2911562540333081,0 3.44308334408882,0.4205032223085678 t4.208212976108558,1.261509666925703 t3.5626348490919044,2.20764191711998 t1.5063489630388591,3.206337070102828 q0,0.8410064446171356 -0.5738472240148113,1.4980427294742726 t-1.1955150500308411,0.6570362848571373 q-1.2911562540333081,0 -2.343209498060448,-0.9198507987999918 t-2.17583739105613,-1.9448274031771255 t-2.4627610030635316,-1.9448274031771255 t-3.012697926077718,-0.9198507987999918 t-3.036608227078335,1.1826653127428466 t-1.3628871570351584,3.127492715919972 q0,3.206337070102828 2.056285886053046,6.28126688323423 t4.519046889116576,6.465237042994229 t4.519046889116576,7.122273327851365 t2.056285886053046,8.25237573780564 q0,1.9448274031771255 -0.7412193310191196,3.2851814242856845 t-1.9606446820505994,2.181360465725695 t-2.749684615070933,1.2877911183199888 t-2.9648773240764847,0.44678467370286545 q-1.5780798660407096,0 -3.682186354094988,-0.8147249932228506 t-3.96910996610239,-2.155079014331409 t-3.1322494310808024,-3.127492715919972 t-1.2672459530326912,-3.731966097988537 q0,-0.9461322501942756 1.2194253510314574,-1.208946764137132 t1.7932725750462613,-0.26281451394286565 q0.2869236120074072,0 0.8846811370228309,0.21025161115428384 t1.171604749030224,0.4730661250971388 t1.0281429430265228,0.5781919306742944 t0.3586545150092591,0.6833177362514333 q0.47820602001233725,0.6307548334628672 1.4585283610376254,1.8659830489942693 t1.9606446820505994,1.9973903059656961 t1.721541672044414,0.5519104792799951 t0.7412193310191196,-2.3653306254856927 q0,-4.099906417508534 -2.0084652840518116,-7.542776550159933 t-4.375585083112876,-6.728051556937082 t-4.375585083112876,-6.517799945782798 t-2.0084652840518116,-6.9120217166970805 z" id="svg_1" class="selected"/><path fill="#" d="" id="svg_2"/></g></svg>